<?xml version="1.0" standalone="no"?>
<!DOCTYPE svg PUBLIC "-//W3C//DTD SVG 20010904//EN"
 "http://www.w3.org/TR/2001/REC-SVG-20010904/DTD/svg10.dtd">
<svg version="1.0" xmlns="http://www.w3.org/2000/svg"
 width="900.000000pt" height="900.000000pt" viewBox="0 0 900.000000 900.000000"
 preserveAspectRatio="xMidYMid meet">
<metadata>
Created by potrace 1.11, written by Peter Selinger 2001-2013
</metadata>
<g transform="translate(0.000000,900.000000) scale(0.100000,-0.100000)"
fill="#000000" stroke="none">
<path d="M0 4500 l0 -4500 4500 0 4500 0 0 4500 0 4500 -4500 0 -4500 0 0
-4500z m4552 3420 c97 -82 281 -205 408 -272 500 -267 1053 -366 1662 -297
154 17 395 60 420 75 9 6 13 -10 42 -161 63 -331 86 -570 93 -960 10 -592 -41
-1050 -183 -1620 -252 -1010 -701 -1922 -1305 -2646 -126 -151 -414 -442 -564
-569 -178 -152 -410 -319 -606 -438 l-35 -21 -130 82 c-300 192 -507 360 -785
637 -275 274 -460 498 -667 807 -617 922 -1032 2124 -1112 3223 -14 189 -14
685 0 870 13 185 44 426 75 594 39 213 35 198 59 192 72 -20 235 -48 391 -68
231 -28 568 -30 750 -4 439 63 881 241 1232 495 59 44 121 93 137 110 17 17
33 31 38 31 4 0 40 -27 80 -60z"/>
<path d="M4424 7811 c-45 -36 -48 -41 -46 -82 11 -238 54 -1024 58 -1056 5
-42 6 -43 45 -43 30 0 39 4 39 18 0 9 14 253 30 542 16 289 30 539 29 555 0
24 -10 38 -48 68 -27 20 -51 37 -54 37 -3 0 -26 -17 -53 -39z"/>
<path d="M4190 7649 c-78 -48 -231 -128 -320 -168 -52 -24 -98 -46 -102 -50
-6 -5 362 -825 377 -840 4 -4 217 38 223 44 6 5 -127 995 -136 1017 -7 17 -9
16 -42 -3z"/>
<path d="M4716 7633 c-17 -102 -135 -997 -133 -1000 2 -1 39 -9 83 -17 43 -8
93 -17 109 -21 l30 -6 193 419 c105 230 192 422 192 425 0 4 -6 7 -13 7 -19 0
-301 140 -380 188 -37 23 -69 42 -71 42 -2 0 -7 -17 -10 -37z"/>
<path d="M3510 7344 c-58 -17 -105 -35 -104 -39 0 -4 132 -182 292 -396 l291
-388 43 19 c24 11 42 24 41 29 -2 7 -402 713 -449 792 -8 13 -21 12 -114 -17z"/>
<path d="M5135 7028 c-110 -193 -214 -377 -232 -408 l-32 -56 45 -22 45 -22
294 395 c162 217 295 397 295 400 0 3 -7 5 -14 5 -12 0 -149 40 -190 56 -6 2
-101 -154 -211 -348z"/>
<path d="M6930 7299 c-19 -4 -100 -18 -180 -30 l-145 -22 -690 -445 c-379
-245 -692 -447 -694 -449 -3 -2 7 -15 21 -30 l26 -26 854 457 c469 252 857
461 862 466 9 9 -2 91 -12 89 -4 -1 -23 -5 -42 -10z"/>
<path d="M1967 7258 c-3 -24 -5 -43 -4 -44 1 0 367 -196 812 -434 446 -238
831 -444 857 -459 l48 -26 26 27 27 26 -69 45 c-38 24 -351 226 -696 449 -617
400 -628 406 -690 413 -35 4 -112 16 -173 26 -60 10 -115 19 -121 19 -6 0 -14
-19 -17 -42z"/>
<path d="M5382 6884 c-195 -217 -352 -397 -350 -398 1 -1 33 -23 70 -49 37
-26 70 -47 73 -47 4 0 264 188 577 418 l570 417 -143 7 c-138 7 -407 34 -432
44 -7 2 -171 -174 -365 -392z"/>
<path d="M3105 7254 c-44 -8 -169 -17 -278 -20 -163 -6 -196 -9 -185 -20 7 -7
265 -197 573 -422 l559 -410 66 46 c36 25 69 49 73 53 14 11 -681 784 -706
785 -12 1 -58 -5 -102 -12z"/>
<path d="M6166 6655 c-466 -217 -849 -395 -851 -397 -2 -2 69 -103 89 -125 1
-1 375 103 831 231 l830 233 -1 79 c-1 89 -34 374 -43 373 -3 0 -388 -177
-855 -394z"/>
<path d="M1926 7013 c-3 -15 -12 -93 -21 -173 -8 -80 -17 -164 -20 -188 -4
-37 -2 -44 18 -52 27 -12 1630 -460 1645 -460 10 0 96 109 90 115 -6 5 -1673
777 -1690 782 -11 3 -18 -3 -22 -24z"/>
<path d="M4335 6530 c-259 -41 -502 -185 -657 -389 -62 -82 -140 -241 -168
-341 -20 -76 -26 -130 -12 -130 4 0 48 5 97 10 158 18 299 49 475 105 342 110
486 112 799 10 222 -72 430 -115 556 -115 l47 0 -7 47 c-11 77 -71 231 -121
314 -182 301 -487 482 -834 494 -63 2 -142 0 -175 -5z"/>
<path d="M1870 6330 c0 -60 3 -110 6 -110 3 0 359 -47 791 -105 432 -58 793
-105 802 -105 22 0 57 69 38 75 -19 7 -1612 355 -1625 355 -9 0 -12 -33 -12
-110z"/>
<path d="M6257 6260 c-444 -98 -810 -180 -813 -183 -3 -3 2 -19 11 -36 11 -22
23 -31 41 -31 23 0 1485 192 1562 205 l32 6 0 72 c0 79 -9 148 -19 146 -3 0
-370 -81 -814 -179z"/>
<path d="M1874 6058 c-3 -5 -2 -74 2 -154 6 -128 9 -145 23 -140 9 3 52 18 96
34 132 49 233 66 390 65 172 0 266 -16 514 -87 174 -50 332 -86 441 -101 l46
-6 12 69 c6 37 22 100 36 140 19 57 21 72 10 72 -18 0 -1463 108 -1522 113
-23 3 -45 0 -48 -5z"/>
<path d="M6290 6007 c-432 -33 -786 -60 -787 -61 -2 -1 6 -24 16 -52 11 -27
27 -86 37 -131 l17 -83 45 0 c66 0 223 35 436 96 249 72 303 83 471 90 190 9
364 -21 527 -91 13 -5 18 -1 22 17 8 41 15 267 8 271 -4 2 -360 -23 -792 -56z"/>
<path d="M4410 5769 c-97 -9 -139 -19 -324 -79 -246 -79 -428 -110 -649 -110
-156 0 -280 23 -567 105 -227 65 -344 85 -491 85 -157 0 -326 -37 -446 -98
-40 -21 -41 -22 -36 -64 3 -24 7 -45 9 -47 2 -2 32 8 66 23 120 51 203 67 364
73 190 7 291 -8 549 -82 274 -78 364 -97 501 -102 205 -9 404 23 669 107 327
105 472 112 720 38 55 -17 152 -46 215 -65 223 -66 498 -97 661 -74 99 15 272
57 455 111 198 59 294 74 479 74 141 -1 172 -4 258 -27 54 -14 123 -38 154
-52 30 -14 57 -25 59 -25 2 0 4 24 4 54 l0 54 -74 31 c-131 54 -234 74 -386
75 -170 0 -249 -13 -480 -79 -102 -29 -239 -65 -305 -80 -278 -63 -572 -38
-942 79 -218 69 -325 86 -463 75z"/>
<path d="M6525 5573 c-134 -10 -244 -32 -441 -89 -296 -84 -403 -104 -564
-104 -224 0 -424 36 -701 125 -284 91 -414 88 -736 -16 -190 -61 -358 -95
-538 -109 -216 -18 -325 0 -714 111 -341 97 -565 102 -796 16 -96 -36 -115
-49 -115 -81 0 -17 3 -41 6 -53 l6 -21 61 29 c121 56 205 72 382 73 186 0 252
-10 462 -70 382 -110 509 -131 704 -114 183 15 307 41 509 105 238 75 315 89
470 82 134 -6 168 -14 384 -83 247 -79 447 -109 665 -101 144 5 273 33 561
120 246 74 510 91 693 43 54 -14 123 -36 152 -50 l53 -24 6 21 c17 64 10 77
-61 109 -126 57 -318 92 -448 81z"/>
<path d="M2268 5360 c-86 -11 -166 -34 -250 -72 -59 -27 -68 -35 -68 -57 0
-45 68 -368 120 -568 361 -1398 1093 -2572 2055 -3295 127 -95 343 -238 360
-238 16 0 196 118 325 213 310 229 646 556 910 887 520 653 937 1522 1170
2435 52 205 105 456 116 546 l6 56 -73 31 c-113 47 -184 62 -309 69 -155 8
-287 -13 -531 -83 -371 -106 -502 -125 -719 -105 -170 16 -341 52 -523 110
-197 63 -249 74 -382 74 -125 1 -161 -6 -371 -73 -277 -89 -516 -127 -729
-117 -142 7 -237 27 -520 107 -270 76 -436 98 -587 80z m2137 -164 c126 -76
233 -177 288 -274 21 -38 25 -41 37 -26 38 45 176 111 195 93 3 -3 -2 -26 -11
-50 -25 -69 -23 -215 5 -319 36 -130 18 -222 -58 -294 -31 -29 -31 -30 -11
-48 73 -68 73 -186 0 -257 -20 -20 -43 -53 -49 -74 -7 -21 -31 -57 -53 -80
l-41 -42 -28 -590 c-15 -324 -28 -603 -28 -620 0 -25 6 -33 42 -50 58 -27 87
-74 87 -139 0 -71 -33 -119 -98 -142 l-49 -17 -12 -271 c-13 -292 -18 -318
-70 -349 -36 -21 -102 -22 -141 -2 -55 28 -60 53 -74 344 -7 147 -16 273 -20
279 -4 7 -16 12 -26 12 -10 0 -33 12 -51 27 -99 84 -66 229 63 275 4 2 -6 281
-22 622 l-29 618 -36 36 c-19 20 -43 58 -53 85 -10 29 -29 58 -49 73 -66 50
-80 157 -29 234 l25 38 -34 38 c-52 56 -68 108 -63 201 3 69 10 91 53 183 45
95 50 111 50 175 -1 48 -6 81 -19 103 -9 19 -15 36 -12 39 20 20 198 -56 263
-112 l42 -36 22 43 c34 67 29 117 -24 220 -24 49 -43 88 -41 88 2 0 28 -15 59
-34z m-1027 -207 c28 -22 69 -61 90 -87 l37 -48 43 33 c43 33 117 61 128 50 4
-4 1 -27 -6 -52 -16 -58 -7 -135 25 -221 42 -112 29 -192 -41 -254 l-34 -29
20 -33 c11 -18 20 -46 20 -61 0 -37 -27 -95 -50 -107 -10 -5 -20 -27 -24 -49
-4 -27 -17 -51 -39 -73 l-34 -33 -17 -380 c-22 -503 -23 -471 14 -490 85 -44
77 -172 -14 -210 l-31 -13 -10 -201 c-10 -196 -11 -201 -36 -227 -16 -15 -42
-28 -66 -31 -34 -4 -45 -1 -73 25 -33 29 -34 30 -41 143 -4 63 -8 153 -8 201
l-1 86 -37 19 c-47 24 -76 75 -69 122 5 35 50 91 73 91 17 0 17 8 -3 475 l-17
390 -32 36 c-18 20 -35 52 -39 72 -4 20 -15 41 -25 47 -24 12 -51 70 -51 107
0 15 8 44 19 63 l18 35 -31 38 c-29 36 -31 45 -31 116 0 67 5 86 38 157 42 92
45 130 17 192 -10 23 -16 42 -11 42 28 0 117 -36 173 -70 37 -22 69 -40 72
-40 3 0 10 18 17 39 14 49 5 78 -50 160 -23 33 -41 62 -41 65 0 9 100 -52 158
-95z m2165 56 c74 -45 145 -105 185 -158 l21 -29 33 25 c48 36 93 57 124 57
21 0 25 -3 18 -17 -4 -10 -9 -51 -12 -90 -4 -62 0 -85 27 -163 17 -50 31 -103
31 -118 -1 -41 -33 -104 -71 -138 l-35 -30 18 -29 c33 -55 19 -139 -29 -170
-14 -10 -23 -25 -23 -41 0 -33 -16 -64 -46 -90 l-24 -20 -20 -410 c-11 -225
-20 -418 -20 -429 0 -13 12 -27 34 -39 40 -21 60 -55 60 -102 0 -49 -33 -89
-102 -120 -2 -1 -8 -89 -13 -195 -8 -161 -13 -198 -28 -219 -40 -56 -107 -62
-154 -14 -27 27 -30 46 -43 307 -6 124 -7 127 -30 133 -41 11 -74 59 -74 111
0 37 5 50 33 77 17 18 37 35 44 37 10 3 8 99 -8 433 l-20 429 -29 29 c-16 16
-32 45 -36 65 -4 22 -21 50 -40 70 -43 43 -50 108 -17 164 16 26 15 29 -10 59
-33 39 -51 102 -42 154 3 23 22 76 41 119 40 88 45 146 19 197 -9 17 -14 34
-12 37 15 14 145 -39 204 -83 17 -13 34 -24 36 -24 3 0 10 14 17 30 19 46 6
96 -45 172 -25 37 -43 68 -40 68 2 0 37 -20 78 -45z"/>
<path d="M4490 5007 c0 -77 -25 -127 -117 -234 -104 -122 -117 -150 -118 -249
0 -70 4 -88 30 -140 23 -43 37 -60 54 -62 20 -3 22 -1 16 15 -74 171 -59 248
75 393 85 92 92 73 14 -36 -32 -44 -64 -95 -72 -114 -24 -57 -19 -131 14 -197
26 -52 33 -58 63 -61 31 -3 33 -2 27 20 -31 98 -37 142 -26 193 10 48 56 135
71 135 4 0 -3 -19 -15 -42 -41 -83 -30 -257 18 -297 17 -14 81 66 124 154 91
187 63 351 -89 509 l-68 71 -1 -58z"/>
<path d="M4178 4901 c5 -49 -17 -127 -63 -222 -51 -107 -61 -163 -41 -231 21
-72 78 -128 132 -128 41 0 40 -8 3 95 -42 119 -8 254 95 371 l45 51 -22 20
c-34 31 -99 71 -127 78 -25 6 -25 4 -22 -34z"/>
<path d="M4782 4862 l-43 -37 12 -55 c23 -108 -9 -257 -80 -367 -20 -32 -40
-64 -45 -70 -5 -10 11 -13 68 -13 73 0 78 1 115 36 73 65 86 146 47 284 -10
33 -16 94 -16 157 0 57 -3 103 -7 103 -5 0 -27 -17 -51 -38z"/>
<path d="M4184 4256 c-45 -20 -74 -62 -74 -107 0 -31 8 -48 34 -77 l34 -37
286 -3 c317 -3 328 -1 366 61 25 41 25 73 0 115 -35 58 -59 62 -352 62 -197
-1 -271 -4 -294 -14z"/>
<path d="M4220 3956 c0 -8 15 -31 34 -50 l33 -36 188 0 187 0 39 39 c22 21 39
44 39 50 0 8 -75 11 -260 11 -219 0 -260 -2 -260 -14z"/>
<path d="M4313 3718 c3 -51 16 -318 27 -593 12 -275 24 -510 26 -522 4 -22 8
-23 113 -23 l109 0 6 83 c3 45 15 287 26 537 11 250 22 490 25 533 l6 77 -172
0 -172 0 6 -92z"/>
<path d="M4313 2523 c-12 -2 -34 -18 -48 -34 -35 -43 -34 -92 4 -130 l29 -29
180 0 c178 0 181 0 210 25 38 32 46 65 28 110 -24 56 -59 65 -233 64 -81 -1
-158 -4 -170 -6z"/>
<path d="M4384 2183 c3 -49 9 -164 12 -258 4 -93 10 -180 15 -192 12 -33 52
-55 84 -47 49 12 56 38 66 241 4 103 10 223 13 266 l4 77 -100 0 -101 0 7 -87z"/>
<path d="M3375 4870 c-11 -52 -30 -85 -85 -145 -67 -74 -84 -109 -84 -175 -1
-75 27 -124 73 -128 29 -3 33 -1 26 15 -21 49 -28 112 -17 150 11 36 131 180
131 158 1 -5 -20 -44 -44 -85 -50 -82 -57 -131 -30 -195 28 -69 58 -53 117 60
60 117 47 240 -36 332 l-43 48 -8 -35z"/>
<path d="M3568 4823 c-24 -25 -26 -32 -18 -68 22 -93 -2 -219 -55 -297 l-26
-38 49 0 c61 0 107 29 136 84 l20 40 -28 78 c-15 43 -33 112 -39 154 l-12 75
-27 -28z"/>
<path d="M3137 4792 c-3 -26 -22 -82 -41 -124 -40 -84 -46 -149 -22 -197 19
-36 58 -61 84 -54 19 5 20 6 5 41 -36 83 -12 197 56 274 l32 36 -33 25 c-18
13 -43 29 -54 35 -20 11 -22 8 -27 -36z"/>
<path d="M3115 4335 c-32 -31 -33 -74 -2 -103 22 -21 32 -22 231 -22 206 0
207 0 231 25 14 13 25 36 25 50 0 14 -11 37 -25 50 -24 25 -25 25 -230 25
-205 0 -206 0 -230 -25z"/>
<path d="M3174 4121 c9 -16 23 -31 31 -35 9 -3 77 -6 150 -6 132 0 134 0 154
26 12 15 21 31 21 35 0 5 -83 9 -185 9 l-186 0 15 -29z"/>
<path d="M3235 3948 c6 -81 35 -704 35 -749 l0 -29 70 0 c48 0 72 4 75 13 2 6
11 174 20 372 8 198 17 384 19 413 l5 52 -115 0 -114 0 5 -72z"/>
<path d="M3280 3113 c-51 -3 -69 -8 -82 -24 -24 -29 -23 -51 5 -77 21 -20 34
-22 143 -22 134 0 164 11 164 58 0 35 -10 49 -43 61 -27 11 -47 11 -187 4z"/>
<path d="M3284 2873 c3 -32 8 -116 12 -188 3 -71 10 -136 16 -142 16 -19 56
-16 67 5 6 10 13 84 16 163 3 79 8 161 10 182 l5 37 -65 0 -66 0 5 -57z"/>
<path d="M5620 4886 c0 -41 -25 -87 -81 -151 -92 -105 -111 -183 -68 -272 18
-38 25 -43 54 -43 l34 0 -15 35 c-20 49 -18 133 4 170 27 44 111 132 112 117
0 -7 -19 -42 -41 -78 -53 -83 -60 -134 -29 -198 12 -25 27 -46 34 -46 16 0 71
77 98 137 32 72 31 163 -4 233 -15 30 -43 71 -63 90 l-35 34 0 -28z"/>
<path d="M5814 4829 c-16 -18 -19 -37 -19 -137 0 -124 3 -115 -73 -264 -2 -5
16 -8 40 -8 52 0 101 27 128 72 26 44 25 79 -6 156 -14 35 -28 95 -31 133 -3
38 -9 69 -13 69 -4 0 -15 -9 -26 -21z"/>
<path d="M5378 4791 c-3 -26 -19 -78 -35 -114 -17 -35 -34 -79 -38 -97 -16
-75 30 -160 87 -160 25 0 29 3 23 18 -43 106 -21 235 52 304 13 12 23 25 23
30 0 8 -88 68 -101 68 -3 0 -9 -22 -11 -49z"/>
<path d="M5355 4335 c-28 -27 -31 -46 -13 -78 23 -44 34 -46 245 -47 196 0
203 1 227 23 36 32 39 74 6 107 -19 19 -33 20 -230 20 -211 0 -211 0 -235 -25z"/>
<path d="M5410 4140 c0 -6 11 -22 25 -35 23 -24 29 -25 153 -25 116 0 132 2
156 21 14 11 26 27 26 35 0 12 -31 14 -180 14 -119 0 -180 -4 -180 -10z"/>
<path d="M5480 3998 c-1 -56 32 -775 36 -795 4 -21 10 -23 73 -23 l69 0 6 63
c3 34 10 175 16 312 6 138 13 298 17 358 l6 107 -112 0 c-108 0 -111 -1 -111
-22z"/>
<path d="M5450 3102 c-27 -22 -30 -67 -6 -90 13 -14 42 -18 141 -20 122 -4
125 -3 150 22 31 31 32 50 0 81 -23 24 -30 25 -143 25 -101 0 -123 -3 -142
-18z"/>
<path d="M5533 2813 c4 -71 7 -153 7 -184 0 -74 24 -109 63 -92 31 14 34 31
42 251 l6 152 -62 0 -62 0 6 -127z"/>
</g>
</svg>
