<svg id="Layer_1" data-name="Layer 1" xmlns="http://www.w3.org/2000/svg" viewBox="0 0 395.5 87.17"><defs><style>.cls-1{fill:#ffc425;}.cls-2{fill:#fff;}</style></defs><title>Artboard 8</title><path class="cls-1" d="M78.71,11.14c0-1.46-.35-2.15-1.46-2.15h-2c-.26,0-.35-.09-.35-.39v-1c0-.26.09-.34.43-.34s2.5.13,6.64.13c3.62,0,5.69-.13,6.21-.13.26,0,.34.09.34.3V8.64c0,.26-.09.35-.34.35H86.39a1.9,1.9,0,0,0-2.11,1.68c0,.52-.13,3.11-.13,5.61v5.35c0,2.15,0,5.22.13,6.6a10.11,10.11,0,0,0,1.51,5.35,7.13,7.13,0,0,0,5.86,2.67,9.12,9.12,0,0,0,5.78-2.07c1.64-1.64,2.5-4.14,2.5-7.29V19.12a79.8,79.8,0,0,0-.47-8.24A1.89,1.89,0,0,0,97.68,9H96.13c-.26,0-.34-.13-.34-.3V7.6c0-.26.09-.34.34-.34.43,0,2.42.13,5.26.13,2.67,0,4.05-.13,4.4-.13s.43.13.43.34v1c0,.26,0,.39-.26.39h-1.55a1.71,1.71,0,0,0-1.81,1.68c-.09.52-.09,6.55-.09,7.12s-.09,8.11-.26,9.83c-.26,3.53-1.3,6.21-3.62,8.28a11.63,11.63,0,0,1-7.85,2.67,17.71,17.71,0,0,1-6.21-1,8.78,8.78,0,0,1-5.09-5.78c-.6-1.9-.77-4.75-.77-10.4Z"/><path class="cls-1" d="M107.43,28.3c.17,0,.26.09.26.35a10,10,0,0,0,1.64,4.92,6.7,6.7,0,0,0,5.69,3.1c2.33,0,5.6-1.46,5.6-5,0-4-1.81-5.26-6.38-7A20.45,20.45,0,0,1,108,21c-1.47-1.38-2.16-3.54-2.16-6.17a7.32,7.32,0,0,1,3-6,8.82,8.82,0,0,1,6.12-2.07,13.52,13.52,0,0,1,5.43,1,.74.74,0,0,0,.91-.13l.56-.56a.78.78,0,0,1,.6-.26c.26,0,.35.26.35.69,0,.69.69,6.73.69,7.16,0,.17-.09.26-.26.3l-.69.22a.33.33,0,0,1-.43-.26,12.39,12.39,0,0,0-2.67-4.57,5.66,5.66,0,0,0-4.48-1.81,4.6,4.6,0,0,0-4.83,4.36,5.25,5.25,0,0,0,1.21,3.88,14.46,14.46,0,0,0,5.26,2.68,13.6,13.6,0,0,1,6.21,3.36A8.3,8.3,0,0,1,124.94,29c0,5.26-3.45,9.57-9.14,9.57-3.54,0-5.61-.78-7.33-2.07-.52-.35-.78-.52-1-.52s-.43.35-.69.78-.43.52-.78.52-.52-.26-.52-.69.69-7.51.78-8c0-.26.09-.34.26-.34Z"/><path class="cls-1" d="M155.3,30.89a.33.33,0,0,1,.09.43c-2.59,3.71-6.73,7.25-12.85,7.25-5.52,0-8.62-1.64-11.3-4.05-3.19-2.84-4.66-7.85-4.66-11.64A16.73,16.73,0,0,1,131,11.31a14.91,14.91,0,0,1,11.21-4.57,18.77,18.77,0,0,1,8.71,2.07c.6.35.78.35.86,0l.34-1.12c.09-.26.17-.26.69-.26s.61.08.61.69c0,.78.86,7.67,1,9,0,.26,0,.39-.17.44l-.82.26c-.21.08-.34-.09-.47-.43a15.32,15.32,0,0,0-3.36-5.61,10.28,10.28,0,0,0-7.51-3.19c-6.9,0-9.74,6.21-9.74,12.42,0,2.67.78,7.76,4,11.21a9.29,9.29,0,0,0,7.42,3.36,12.58,12.58,0,0,0,10.31-5c.21-.3.39-.43.52-.3Z"/><path class="cls-2" d="M168.76,37.66a7.85,7.85,0,0,1-5.13-5.78c-.52-1.94-.69-4.83-.69-10.48V11.14c0-1.51-.3-2.2-1.64-2.2h-2c-.26,0-.3-.09-.3-.39v-1c0-.26,0-.34.39-.34s2.54.13,5.91.13,5.43-.13,5.91-.13.39.09.39.26V8.64c0,.21,0,.3-.35.3h-2.15A1.94,1.94,0,0,0,167,10.71c0,.39-.09,3.41-.09,5.61v2.85c0,2.28.17,7.76.22,9.14a10.33,10.33,0,0,0,1.38,5.48c1.59,2.33,4.36,3.11,6.86,3.11a9.2,9.2,0,0,0,6.47-2.37c1.68-1.81,2.24-4.4,2.24-7.59V17.69c0-3.28-.09-5.78-.21-6.86a1.92,1.92,0,0,0-1.94-1.9H180c-.26,0-.3-.13-.3-.35v-1c0-.22,0-.3.3-.3.43,0,2.42.13,5.3.13s4.35-.13,4.74-.13.43.17.43.3v.95c0,.26,0,.43-.26.43h-1.77c-1.6,0-1.72,1.21-1.85,1.72s-.09,6.55-.09,7.16-.09,8.15-.21,9.83c-.26,3.53-1.21,6.25-3.62,8.32-1.73,1.6-4.36,2.59-8.11,2.59a16,16,0,0,1-5.82-.9"/><path class="cls-2" d="M205.8,35.59c0,.69.39.91.95.91h1.38c.39,0,.48.13.48.39v.69c0,.3-.09.47-.35.47s-1.64-.13-4.09-.13c-2.2,0-3.58.13-3.88.13s-.35-.13-.35-.47v-.69c0-.3.13-.39.56-.39h1.25c.47,0,.82-.22.86-1,0-1.12.09-2.5.09-3.62V26.19c0-1.72,0-3-1.25-3.88a4.74,4.74,0,0,0-3.15-.78,5.05,5.05,0,0,0-3.49,1.68,4.23,4.23,0,0,0-1,2.93v8.93c0,1.16.13,1.42,1,1.42h1.08c.35,0,.43.13.43.43v.74c0,.26-.09.39-.3.39s-1.46-.13-3.75-.13-3.58.13-3.84.13-.3-.13-.3-.39v-.78c0-.26.09-.39.43-.39h1.25c.56,0,.86-.13.86-.87V25.54A2.66,2.66,0,0,0,188.94,23l-.35-.17c-.3-.13-.34-.26-.34-.39v-.22c0-.21.17-.34.39-.43l3.71-2.07a2.29,2.29,0,0,1,.78-.3c.21,0,.3.17.34.52l.3,2.63h.09a8.66,8.66,0,0,1,5.91-3.15,6.67,6.67,0,0,1,3.67.95,6.3,6.3,0,0,1,2.37,4.1Z"/><path class="cls-2" d="M213,25.37c0-1.46-.26-2.24-2.42-2.58-.3,0-.39-.13-.39-.3v-.39c0-.13.09-.21.3-.3a35.44,35.44,0,0,0,4.66-2.11,1.78,1.78,0,0,1,.82-.26c.21,0,.26.21.21.52-.09.73-.09,3.45-.09,7v4.7c0,1.68,0,3.23,0,3.71.09.82.21,1.13.69,1.13h2c.35,0,.43.13.43.39v.73c0,.3-.08.43-.39.43s-2.33-.13-4.14-.13c-2.5,0-4.18.13-4.65.13-.22,0-.35-.09-.35-.35v-.86c0-.26.13-.34.43-.34h2.11c.48,0,.65-.17.69-.87,0-1.29,0-2.63,0-3.92ZM211,12.22A2.39,2.39,0,0,1,213.65,10a2.14,2.14,0,0,1,2.24,2.11,2.34,2.34,0,0,1-2.5,2.37A2.45,2.45,0,0,1,211,12.22"/><path class="cls-2" d="M228.32,34h.13c.69-1.68,3.71-9.05,4.14-10.74.3-1.16,0-1.85-.78-1.85h-.86c-.13,0-.17-.22-.17-.43v-.78c0-.26.09-.35.26-.35.6,0,1.55.13,3.45.13,1.68,0,2.72-.13,3.1-.13s.39,0,.39.39v.73c0,.3,0,.43-.21.43h-.82a1.7,1.7,0,0,0-1.34.48c-.65.6-2.8,5.3-3.45,6.9-.52,1.29-3.71,8.54-3.88,8.84-.35.6-.56,1-1,1s-.69-.39-.91-.9L223,28.9c-.13-.34-1.9-5.26-2.2-6-.56-1.25-1-1.59-1.77-1.59h-.86c-.21,0-.26-.17-.26-.43v-.78c0-.3.09-.35.48-.35s1.21.13,3.62.13,3.41-.13,3.88-.13.43.09.43.35v.78c0,.26,0,.43-.3.43h-.87a.74.74,0,0,0-.78.82,35.74,35.74,0,0,0,1.38,5.09c.26.82,2.11,5.78,2.59,6.68"/><path class="cls-2" d="M240,26.45a11.08,11.08,0,0,0-.13,2.07c0,4.23,2.68,7.42,6.12,7.42A5.84,5.84,0,0,0,251.22,33a.35.35,0,0,1,.39-.21l.56.3c.13,0,.21.17,0,.64a7.78,7.78,0,0,1-6.86,4.7c-2.46,0-5.17-.73-6.77-3.06s-1.9-3.79-1.9-6.81a9.71,9.71,0,0,1,2.71-6.86,8,8,0,0,1,6.17-2.29c5,0,6.34,4.66,6.34,6.34,0,.6-.52.69-1.21.69Zm6.86-1.29c.82,0,1.17-.21,1.17-.61,0-1-.52-3.84-3.32-3.84-1.9,0-3.71,1.25-4.53,4.44Z"/><path class="cls-2" d="M255.9,26.45c0-2.2-.34-2.63-1.55-3.28l-.82-.43c-.26-.08-.34-.13-.34-.3v-.26c0-.17.08-.26.34-.38l4.27-2.2a1.31,1.31,0,0,1,.6-.17c.26,0,.3.26.3.52l.22,3h.17c1.3-2,3.32-3.75,5.18-3.75a2,2,0,0,1,2.2,1.9,2.08,2.08,0,0,1-1.81,2.11,2.79,2.79,0,0,1-1.25-.35,2.8,2.8,0,0,0-1.43-.34,3.06,3.06,0,0,0-2.54,1.81,4.63,4.63,0,0,0-.43,1.38v9.05c0,1.33.31,1.77,1.21,1.77h2c.26,0,.3.13.3.39v.78c0,.26,0,.39-.21.39s-2.24-.13-4.57-.13c-2.67,0-4.48.13-4.74.13s-.26-.09-.26-.43v-.73c0-.3.09-.39.47-.39h1.68c.65,0,.95-.26.95-.82,0-1.42,0-2.93,0-5.17Z"/><path class="cls-2" d="M267.52,37.18c-.21-.13-.21-.39-.26-.6l-.73-4.1c0-.21.09-.3.26-.35l.56-.12c.17,0,.3,0,.39.26l1.08,2.11c.86,1.6,1.46,2.68,3.75,2.68,1.51,0,3.41-.91,3.41-2.93s-.95-3.06-4.18-4c-2.54-.73-5.09-2.07-5.09-5.48,0-3,2.8-5.26,6-5.26a8.05,8.05,0,0,1,4,.91c.65.3.73.52.78.77l.65,3a.4.4,0,0,1-.3.39l-.52.17c-.17,0-.26,0-.39-.21l-1.47-2a3.29,3.29,0,0,0-3-1.68c-1.64,0-3.32,1-3.32,2.85,0,2.5,2,3,4.14,3.58,3.15.91,5.13,2.2,5.18,5.52,0,3.49-2.89,5.69-6.55,5.69a8.14,8.14,0,0,1-4.36-1.25"/><path class="cls-2" d="M282.74,25.37c0-1.46-.26-2.24-2.42-2.58-.3,0-.39-.13-.39-.3v-.39c0-.13.09-.21.3-.3a35.45,35.45,0,0,0,4.66-2.11,1.77,1.77,0,0,1,.82-.26c.22,0,.26.21.22.52-.09.73-.09,3.45-.09,7v4.7c0,1.68,0,3.23,0,3.71.09.82.21,1.13.69,1.13h2c.34,0,.43.13.43.39v.73c0,.3-.08.43-.38.43s-2.33-.13-4.14-.13c-2.5,0-4.18.13-4.66.13-.22,0-.35-.09-.35-.35v-.86c0-.26.13-.34.43-.34H282c.47,0,.65-.17.69-.87,0-1.29,0-2.63,0-3.92ZM280.8,12.22A2.39,2.39,0,0,1,283.43,10a2.14,2.14,0,0,1,2.24,2.11,2.34,2.34,0,0,1-2.5,2.37,2.45,2.45,0,0,1-2.37-2.24"/><path class="cls-2" d="M294.56,32.53c0,3.23,1.46,3.79,2.24,3.79a6.2,6.2,0,0,0,2.85-.56.35.35,0,0,1,.52.08l.22.39a.34.34,0,0,1-.09.47,7.25,7.25,0,0,1-4.79,1.72c-2.11,0-4.18-2-4.18-3.66s.13-5.56.13-6.17v-.95c0-.78,0-3.67.09-5.48h-2.63c-.39,0-.65-.17-.65-.52s.26-.47.78-.78c1-.6,4.36-4,4.92-5.43a.58.58,0,0,1,.6-.43c.35,0,.43.3.43.64l-.22,4.27h6c.26,0,.39.21.3.39l-.43,1.51c0,.21-.13.34-.39.34h-5.56c-.08,2-.13,4.05-.13,6Z"/><path class="cls-2" d="M301.89,47.45a1.91,1.91,0,0,1,2-1.68,7.44,7.44,0,0,1,2,.47,1,1,0,0,0,.9-.26,52.47,52.47,0,0,0,3.45-7.37c-.21-1.08-4.79-14.53-5.13-15.44-.52-1.08-.91-1.81-2-1.81h-1.12c-.3,0-.34-.12-.34-.38v-.86c0-.17,0-.3.34-.3s1.42.13,4,.13c2.2,0,3.54-.13,4-.13s.39.13.39.3V21c0,.21,0,.34-.26.34h-.82c-.47,0-.65.3-.56,1,.13.95,3.06,10.44,3.54,11.38h.17c.43-.69,4.18-9.61,4.44-10.69s-.09-1.64-.73-1.64h-.69c-.26,0-.3-.12-.3-.34v-.86c0-.21,0-.35.26-.35.56,0,1.47.13,3.54.13,1.16,0,2.16-.13,2.63-.13.26,0,.26.17.26.35V21c0,.26,0,.38-.21.38h-.69a1.93,1.93,0,0,0-1.51.78c-.95,1.16-3.8,7.72-6.77,14.49-2.11,4.79-3.79,8.8-4.57,10.22-.61,1.12-1.38,2.8-3.67,2.8-1.64,0-2.46-.9-2.46-2.2"/><path class="cls-2" d="M330.56,35.46c-2-2.37-2.37-4-2.37-7a9.16,9.16,0,0,1,3.71-6.94,9.32,9.32,0,0,1,5.78-2.07,9.13,9.13,0,0,1,6,2.5,9.58,9.58,0,0,1,2.93,7,9.84,9.84,0,0,1-9.53,9.48,8.69,8.69,0,0,1-6.55-3M343,28.52c0-4.79-3.49-7.8-5.69-7.8A4.16,4.16,0,0,0,334,22.09c-1.68,1.72-2.29,3.49-2.29,6.77a9.32,9.32,0,0,0,1.64,6,4.77,4.77,0,0,0,4.27,2.24c3.28,0,5.39-4,5.39-8.63"/><path class="cls-2" d="M351,22h-3c-.21,0-.3-.09-.21-.47l.17-1.29c0-.26.17-.3.52-.3H351v-.82c0-4.27,1.21-7.07,2.89-9A9.26,9.26,0,0,1,361,6.74c2,0,3.93.78,3.93,2.41A2.06,2.06,0,0,1,363.11,11a2.77,2.77,0,0,1-1.21-.26,4.61,4.61,0,0,1-1-1,2.37,2.37,0,0,0-2-1,3.84,3.84,0,0,0-3.23,1.51c-1.59,2-1.51,5.78-1.51,8.8v.86h5.22c.3,0,.35.26.3.43l-.22,1.43c0,.17-.21.21-.56.21h-4.74v3.84c0,5.09,0,9.05,0,9.53.08.74.21,1.13,1.12,1.13h2.46c.39,0,.47.08.47.34v.69c0,.35-.09.52-.3.52s-1.86-.13-5.18-.13c-2.37,0-4.57.13-4.92.13s-.34-.09-.34-.3V36.8c0-.22.09-.3.43-.3H350c.82,0,1-.52,1-1.51V22Z"/><path class="cls-2" d="M81.18,76.79c-.52-.39-.78-.52-1-.52s-.43.3-.69.73-.47.52-.78.52-.47-.22-.39-.69c.17-1.08.6-6.55.73-7.8,0-.26.13-.26.3-.26l.65,0c.17,0,.26.09.26.35a8.46,8.46,0,0,0,1.55,5,7.22,7.22,0,0,0,6,3.19c2.59,0,5.87-1.6,5.87-5.48,0-4.44-3.19-6.08-6.64-7.29-1.34-.48-4.44-1.55-6.29-3.49-1.42-1.42-2.16-3.45-2.16-6.3a8.14,8.14,0,0,1,2.67-5.52,8.59,8.59,0,0,1,6-2.07,12.4,12.4,0,0,1,5.09,1.08c.39.22.6.17.82,0l.56-.52a.82.82,0,0,1,.56-.26c.21,0,.34.34.34.73,0,1.51.56,5.91.61,6.86,0,.21,0,.3-.22.34l-.52.13a.18.18,0,0,1-.26-.13,10.47,10.47,0,0,0-2.67-4.79A6,6,0,0,0,87,48.76a4.89,4.89,0,0,0-5.22,5,5.24,5.24,0,0,0,1.34,3.75A13.55,13.55,0,0,0,88,60.15c3,.95,5.39,1.68,6.94,3.58a8.42,8.42,0,0,1,1.9,5.87c0,5.09-3.1,9.45-8.8,9.45a10.61,10.61,0,0,1-6.86-2.24"/><path class="cls-2" d="M101,75.93c-2-2.37-2.37-4-2.37-7A9.17,9.17,0,0,1,102.38,62a9.31,9.31,0,0,1,5.78-2.07,9.12,9.12,0,0,1,6,2.5,9.56,9.56,0,0,1,2.93,7,9.84,9.84,0,0,1-9.53,9.49,8.69,8.69,0,0,1-6.55-3M113.51,69c0-4.79-3.49-7.8-5.69-7.8a4.17,4.17,0,0,0-3.32,1.38c-1.68,1.72-2.29,3.49-2.29,6.77a9.3,9.3,0,0,0,1.64,6,4.77,4.77,0,0,0,4.27,2.24c3.28,0,5.39-4,5.39-8.62"/><path class="cls-2" d="M135,69.63c0,2.07,0,4.18.09,5.09.13,1.34.6,1.51,1.12,1.51a6.36,6.36,0,0,0,1.42-.13c.35-.09.48,0,.52.17l.13.56c0,.26,0,.35-.22.39l-4.53,1.51a2.51,2.51,0,0,1-.86.18c-.17,0-.34-.09-.39-.52l-.35-2.5h-.09a7.88,7.88,0,0,1-5.87,3,4.51,4.51,0,0,1-4.05-2c-1.77-2.28-1.68-3.71-1.68-8.45v-5c0-1.21-.65-1.51-1.64-1.64-.73,0-.95-.09-.95-.3v-.78c0-.26.09-.35.47-.35h3.84a2.27,2.27,0,0,0,.6-.09c.17,0,.34,0,.47,0a.44.44,0,0,1,.47.52c0,.39-.17,2.41-.17,5v3.06c0,1.73-.43,4.48.95,6.47a3.61,3.61,0,0,0,3.45,1.64,5.94,5.94,0,0,0,3.71-2.15,2.35,2.35,0,0,0,.43-1.17V63.34c-.09-1.21-.78-1.42-1.85-1.51-.73,0-.95-.09-.95-.3v-.73c0-.35.09-.39.52-.39h4a3.43,3.43,0,0,0,.73-.09c.21,0,.39,0,.52,0a.37.37,0,0,1,.39.43,37.77,37.77,0,0,0-.26,5.74Z"/><path class="cls-2" d="M144.41,73c0,3.23,1.47,3.79,2.24,3.79a6.19,6.19,0,0,0,2.85-.56.35.35,0,0,1,.52.09l.21.39a.35.35,0,0,1-.09.47,7.24,7.24,0,0,1-4.79,1.73c-2.11,0-4.18-2-4.18-3.67s.13-5.56.13-6.17v-.95c0-.78,0-3.66.09-5.48h-2.63c-.39,0-.64-.17-.64-.52s.26-.47.78-.78c1-.6,4.35-4,4.92-5.43a.58.58,0,0,1,.6-.43c.34,0,.43.3.43.65l-.22,4.27h6c.26,0,.39.22.3.39l-.43,1.51c0,.21-.13.34-.39.34h-5.56c-.08,2-.13,4.05-.13,6Z"/><path class="cls-2" d="M154.3,54.89c0-2.63-.52-3.11-2.07-3.62L151.5,51c-.26-.09-.3-.13-.3-.26v-.39c0-.17.13-.21.52-.43l4.48-2.37a2.27,2.27,0,0,1,1-.34c.26,0,.43.34.34,1.08s-.13,9.49-.13,11.65v2.76h.21a8.24,8.24,0,0,1,5.91-2.8,5.64,5.64,0,0,1,4.27,1.72c1.94,1.81,1.86,4,1.86,6.34v2.46c0,2.42.09,5.09.09,5.91,0,.52.69.65,1.6.65h.73c.34,0,.47.09.47.39V78c0,.35-.09.52-.34.52s-1.68-.13-4.14-.13c-2.11,0-3.66.13-4.05.13s-.39-.13-.39-.47v-.73c0-.22,0-.35.3-.35h1c.73,0,1.59-.09,1.64-.82s0-2.89,0-4.27V68.38c0-2.42-.17-4.14-1.42-5.31a4,4,0,0,0-2.84-1.21,5.27,5.27,0,0,0-4,1.81,3.75,3.75,0,0,0-.86,2.12v9.4c0,1.38.13,1.77.95,1.77h1.29c.3,0,.48.09.48.35V78c0,.3-.09.47-.35.47s-2.11-.13-4.1-.13c-2.16,0-3.79.13-4.18.13-.17,0-.3-.13-.3-.43v-.78c0-.3.17-.35.65-.35h.91c.69,0,1.33-.17,1.42-.69.13-.82.13-5.56.13-8.37Z"/><path class="cls-2" d="M176.25,66.91a11,11,0,0,0-.13,2.07c0,4.23,2.67,7.42,6.13,7.42a5.84,5.84,0,0,0,5.22-2.93.35.35,0,0,1,.39-.21l.56.3c.13,0,.22.17,0,.64a7.77,7.77,0,0,1-6.86,4.7c-2.46,0-5.17-.73-6.77-3.06s-1.9-3.8-1.9-6.81a9.71,9.71,0,0,1,2.72-6.86,8,8,0,0,1,6.17-2.28c5,0,6.34,4.66,6.34,6.34,0,.6-.52.69-1.21.69Zm6.86-1.29c.82,0,1.16-.22,1.16-.6,0-1-.52-3.84-3.32-3.84-1.9,0-3.71,1.25-4.53,4.44Z"/><path class="cls-2" d="M192.45,66.92c0-2.2-.34-2.63-1.55-3.28l-.82-.43c-.26-.09-.34-.13-.34-.3v-.26c0-.17.09-.26.34-.39l4.27-2.2a1.29,1.29,0,0,1,.6-.17c.26,0,.3.26.3.52l.21,3h.17c1.29-2,3.32-3.75,5.18-3.75a2,2,0,0,1,2.2,1.9,2.08,2.08,0,0,1-1.81,2.11,2.84,2.84,0,0,1-1.25-.34,2.79,2.79,0,0,0-1.42-.35A3.06,3.06,0,0,0,196,64.76a4.63,4.63,0,0,0-.43,1.38V75.2c0,1.34.3,1.77,1.21,1.77h2c.26,0,.3.13.3.39v.78c0,.26,0,.39-.21.39s-2.25-.13-4.58-.13c-2.67,0-4.49.13-4.74.13s-.26-.09-.26-.43v-.73c0-.3.09-.39.48-.39h1.68c.65,0,.95-.26.95-.82,0-1.42,0-2.93,0-5.18Z"/><path class="cls-2" d="M221.46,76.06c0,.69.39.91.95.91h1.38c.39,0,.47.13.47.39V78c0,.3-.08.47-.34.47s-1.64-.13-4.1-.13c-2.2,0-3.58.13-3.88.13s-.35-.13-.35-.47v-.69c0-.3.13-.39.56-.39h1.25c.48,0,.82-.21.86-1,0-1.12.09-2.5.09-3.62v-5.7c0-1.72,0-3-1.25-3.88A4.74,4.74,0,0,0,214,62a5,5,0,0,0-3.49,1.68,4.22,4.22,0,0,0-1,2.93v8.93c0,1.16.13,1.42,1,1.42h1.08c.35,0,.43.13.43.43v.73c0,.26-.08.39-.3.39s-1.46-.13-3.75-.13-3.58.13-3.84.13-.3-.13-.3-.39v-.78c0-.26.09-.39.43-.39h1.25c.56,0,.86-.13.86-.86V66a2.66,2.66,0,0,0-1.77-2.54l-.34-.17c-.3-.13-.34-.26-.34-.39v-.21c0-.22.17-.35.39-.43L208,60.19a2.28,2.28,0,0,1,.78-.3c.21,0,.3.17.35.52l.3,2.63h.09a8.66,8.66,0,0,1,5.91-3.15,6.64,6.64,0,0,1,3.66,1,6.28,6.28,0,0,1,2.37,4.09Z"/><path class="cls-2" d="M238,75.07c-3.11-2.93-4.61-7.94-4.61-12.07a16.4,16.4,0,0,1,4.39-11.42,15,15,0,0,1,10.78-4.36,17.94,17.94,0,0,1,8.71,2.37c.56.35.77.3.86,0l.34-1.25c.09-.26.17-.26.56-.26s.47.09.47.69c0,.82.86,7.16,1.08,8.37,0,.22,0,.39-.17.43l-.65.17c-.21,0-.3,0-.43-.34A16.69,16.69,0,0,0,256,52a10,10,0,0,0-7.5-3.32c-7.72,0-10.82,6.85-10.78,13.15A17.28,17.28,0,0,0,241.81,73a9.58,9.58,0,0,0,8.28,3.62,13.18,13.18,0,0,0,10.65-5.47c.13-.22.21-.26.34-.13l.56.43c.13.09.21.17.09.39C259.15,75.54,255,79,248.89,79c-5.09,0-8.32-1.6-10.91-4"/><path class="cls-2" d="M275.64,73.26c0,2.46.52,3.23,1.29,3.23a2,2,0,0,0,1.51-.64c.17-.22.26-.3.43-.17l.43.34c.13.13.22.35,0,.78a3.56,3.56,0,0,1-3.36,2.11c-1.55,0-2.67-1.12-3.06-2.89h-.09a9.31,9.31,0,0,1-4.27,2.63,8.08,8.08,0,0,1-2.54.26c-1,0-2.59-.86-2.59-3.58,0-2,.91-3.71,4.31-5.22a28.49,28.49,0,0,0,4.87-2.5V64.84a5,5,0,0,0-.6-2.41,3.27,3.27,0,0,0-2.59-1,4.81,4.81,0,0,0-2.8.91c-.6.56-.22,1.21-.22,2,0,1.51-.52,2.46-2.29,2.46-.69,0-1-.39-1-1.38,0-1.38,1.21-3,3-4.05a9.5,9.5,0,0,1,5.26-1.51,4.43,4.43,0,0,1,3.45,1.16,3.81,3.81,0,0,1,.95,3.06v9.14Zm-3.15-4.36c-1.55,1.17-5.78,2-5.78,5.6A2.12,2.12,0,0,0,269,76.88c1.25,0,3.54-1.51,3.54-2.67Z"/><path class="cls-2" d="M286.51,65.54c0,2.24,0,8.75,0,10.09,0,.74.21,1.34,1.12,1.34h1.94c.39,0,.47.13.47.39v.73c0,.26-.09.43-.26.43s-2.2-.13-4.87-.13-4.48.13-4.87.13c-.21,0-.3-.17-.3-.43v-.73c0-.3.09-.39.56-.39h2.07c.48,0,.91-.3.95-1.08,0-1.34,0-8.75,0-11.25V61.91c0-3.06,0-7-.13-8.11a2.59,2.59,0,0,0-2.15-2.59l-.86-.3c-.21-.08-.26-.12-.26-.21v-.34c0-.13.13-.21.39-.3a38.92,38.92,0,0,0,5-2.5,1.59,1.59,0,0,1,.91-.35c.3,0,.39.22.35.78,0,2.37-.18,11.34-.18,13.71Z"/><path class="cls-2" d="M294.36,65.84c0-1.47-.26-2.24-2.42-2.59-.3,0-.39-.13-.39-.3v-.39c0-.13.09-.21.3-.3a35.94,35.94,0,0,0,4.66-2.11,1.77,1.77,0,0,1,.82-.26c.22,0,.26.21.22.52-.09.73-.09,3.45-.09,7v4.7c0,1.68,0,3.23,0,3.71.09.82.21,1.12.69,1.12h2c.34,0,.43.13.43.39v.73c0,.3-.09.43-.38.43s-2.33-.13-4.14-.13c-2.5,0-4.19.13-4.66.13-.21,0-.35-.09-.35-.34v-.86c0-.26.13-.35.43-.35h2.11c.47,0,.65-.17.69-.86,0-1.29,0-2.63,0-3.93Zm-1.94-13.15a2.39,2.39,0,0,1,2.63-2.24,2.14,2.14,0,0,1,2.24,2.11,2.34,2.34,0,0,1-2.5,2.37,2.45,2.45,0,0,1-2.37-2.24"/><path class="cls-2" d="M305.25,62.47h-3c-.21,0-.3-.09-.21-.47l.17-1.3c0-.26.17-.3.52-.3h2.5v-.82c0-4.27,1.21-7.07,2.89-9a9.26,9.26,0,0,1,7.07-3.41c2,0,3.92.78,3.92,2.41a2.06,2.06,0,0,1-1.81,1.86,2.7,2.7,0,0,1-1.21-.26,4.56,4.56,0,0,1-1-1,2.37,2.37,0,0,0-2-1,3.84,3.84,0,0,0-3.24,1.51c-1.59,2-1.51,5.78-1.51,8.8v.86h5.22c.3,0,.35.26.3.43l-.21,1.42c0,.17-.22.21-.56.21h-4.74v3.84c0,5.09,0,9.06,0,9.53.09.73.21,1.12,1.12,1.12H312c.39,0,.47.09.47.34V78c0,.35-.09.52-.3.52s-1.86-.13-5.18-.13c-2.37,0-4.57.13-4.91.13s-.35-.09-.35-.3v-.95c0-.21.09-.3.43-.3h2.07c.82,0,1-.52,1-1.51v-13Z"/><path class="cls-2" d="M315.48,75.93c-2-2.37-2.37-4-2.37-7A9.16,9.16,0,0,1,316.82,62a9.31,9.31,0,0,1,5.78-2.07,9.13,9.13,0,0,1,6,2.5,9.56,9.56,0,0,1,2.93,7A9.84,9.84,0,0,1,322,78.9a8.69,8.69,0,0,1-6.55-3M327.94,69c0-4.79-3.49-7.8-5.69-7.8a4.16,4.16,0,0,0-3.32,1.38c-1.68,1.72-2.29,3.49-2.29,6.77a9.29,9.29,0,0,0,1.64,6,4.77,4.77,0,0,0,4.27,2.24c3.28,0,5.39-4,5.39-8.62"/><path class="cls-2" d="M335,66.92c0-2.2-.35-2.63-1.55-3.28l-.82-.43c-.26-.09-.35-.13-.35-.3v-.26c0-.17.09-.26.35-.39l4.27-2.2a1.28,1.28,0,0,1,.6-.17c.26,0,.3.26.3.52l.22,3h.17c1.29-2,3.32-3.75,5.18-3.75a2,2,0,0,1,2.2,1.9,2.08,2.08,0,0,1-1.81,2.11,2.83,2.83,0,0,1-1.25-.34,2.79,2.79,0,0,0-1.42-.35,3.06,3.06,0,0,0-2.54,1.81,4.72,4.72,0,0,0-.43,1.38V75.2c0,1.34.3,1.77,1.21,1.77h2c.26,0,.3.13.3.39v.78c0,.26,0,.39-.21.39s-2.24-.13-4.57-.13c-2.67,0-4.48.13-4.74.13s-.26-.09-.26-.43v-.73c0-.3.09-.39.47-.39H334c.65,0,.95-.26.95-.82,0-1.42,0-2.93,0-5.18Z"/><path class="cls-2" d="M363.94,76.06c0,.69.39.91.95.91h1.38c.39,0,.47.13.47.39V78c0,.3-.09.47-.35.47s-1.63-.13-4.1-.13c-2.2,0-3.58.13-3.88.13s-.35-.13-.35-.47v-.69c0-.3.13-.39.56-.39h1.25c.47,0,.82-.21.86-1,0-1.12.09-2.5.09-3.62v-5.7c0-1.72,0-3-1.25-3.88a4.74,4.74,0,0,0-3.15-.77,5.06,5.06,0,0,0-3.49,1.68,4.24,4.24,0,0,0-1,2.93v8.93c0,1.16.13,1.42,1,1.42h1.08c.35,0,.43.13.43.43v.73c0,.26-.09.39-.3.39s-1.47-.13-3.75-.13-3.58.13-3.84.13-.3-.13-.3-.39v-.78c0-.26.09-.39.43-.39H348c.56,0,.86-.13.86-.86V66a2.66,2.66,0,0,0-1.77-2.54l-.35-.17c-.3-.13-.34-.26-.34-.39v-.21c0-.22.17-.35.39-.43l3.71-2.07a2.29,2.29,0,0,1,.78-.3c.21,0,.3.17.34.52l.3,2.63H352a8.66,8.66,0,0,1,5.91-3.15,6.66,6.66,0,0,1,3.67,1,6.28,6.28,0,0,1,2.37,4.09Z"/><path class="cls-2" d="M371.1,65.84c0-1.47-.26-2.24-2.42-2.59-.3,0-.38-.13-.38-.3v-.39c0-.13.09-.21.3-.3a36.07,36.07,0,0,0,4.66-2.11,1.76,1.76,0,0,1,.82-.26c.21,0,.26.21.21.52-.09.73-.09,3.45-.09,7v4.7c0,1.68,0,3.23,0,3.71.09.82.21,1.12.69,1.12h2c.35,0,.43.13.43.39v.73c0,.3-.08.43-.38.43s-2.33-.13-4.14-.13c-2.5,0-4.18.13-4.66.13-.21,0-.34-.09-.34-.34v-.86c0-.26.13-.35.43-.35h2.11c.47,0,.65-.17.69-.86,0-1.29,0-2.63,0-3.93Zm-1.94-13.15a2.39,2.39,0,0,1,2.63-2.24A2.14,2.14,0,0,1,374,52.56a2.34,2.34,0,0,1-2.5,2.37,2.45,2.45,0,0,1-2.37-2.24"/><path class="cls-2" d="M391,73.26c0,2.46.52,3.23,1.29,3.23a2,2,0,0,0,1.51-.64c.17-.22.26-.3.43-.17l.43.34c.13.13.22.35,0,.78a3.55,3.55,0,0,1-3.36,2.11c-1.55,0-2.67-1.12-3.06-2.89h-.09a9.28,9.28,0,0,1-4.27,2.63,8.06,8.06,0,0,1-2.54.26c-1,0-2.59-.86-2.59-3.58,0-2,.91-3.71,4.31-5.22a28.57,28.57,0,0,0,4.87-2.5V64.84a5,5,0,0,0-.61-2.41,3.27,3.27,0,0,0-2.59-1,4.82,4.82,0,0,0-2.8.91c-.6.56-.22,1.21-.22,2,0,1.51-.52,2.46-2.28,2.46-.69,0-1-.39-1-1.38,0-1.38,1.21-3,3-4.05a9.51,9.51,0,0,1,5.26-1.51A4.43,4.43,0,0,1,390,61.05a3.81,3.81,0,0,1,.95,3.06v9.14Zm-3.15-4.36c-1.55,1.17-5.78,2-5.78,5.6a2.12,2.12,0,0,0,2.24,2.37c1.25,0,3.54-1.51,3.54-2.67Z"/><path class="cls-2" d="M59.18,52.71c-4,9.78-11.69,23.17-25.53,31.6C19.79,75.91,12.07,62.54,8,52.77A86.09,86.09,0,0,1,2.62,33.88,10.25,10.25,0,0,1,7.8,32.5h0A18,18,0,0,1,12,33l.59.17,1.72.5a24.88,24.88,0,0,0,6.12,1.19h0a25.71,25.71,0,0,0,8.45-1.47,17.32,17.32,0,0,1,3.4-.88l1.13-.08h.07l1.75.16a17.69,17.69,0,0,1,2.9.79,25.79,25.79,0,0,0,8.43,1.45h0A19.83,19.83,0,0,0,51.46,34c.87-.23,1.75-.5,2.59-.74L55,33a19,19,0,0,1,4.29-.56h0a10.71,10.71,0,0,1,5.2,1.34,86.1,86.1,0,0,1-5.37,18.93M1.77,19.33l20.16,4.41q-.27.46-.5.95L1.7,22.06c0-.87,0-1.79.07-2.73M2.46,12l20.94,9.7a13.69,13.69,0,0,0-1.1,1.46L1.87,17.39c.12-1.74.31-3.56.59-5.44M3,8.82a42.83,42.83,0,0,0,4.48.71l17,11c-.23.21-.44.43-.65.65L2.81,9.92c.07-.37.13-.73.21-1.1m9.06.95a33.77,33.77,0,0,0,6.17-.54l8.58,9.62A13.39,13.39,0,0,0,25,20.12L10.81,9.75l1.26,0M23,7.92l5.7,10c-.38.15-.76.31-1.13.5L20.35,8.74q1.41-.38,2.68-.82m7.53-3.64L32.3,17.09a13.36,13.36,0,0,0-2.78.57L24.74,7.27a35.19,35.19,0,0,0,5.82-3m3-2.19c.42.36.85.69,1.29,1l-.77,13.94-.49,0h0l-.5,0-.77-14c.56-.41,1-.76,1.26-1m3,2.19a34,34,0,0,0,5.77,3L37.54,17.64a13.34,13.34,0,0,0-2.74-.55ZM44,7.91c1.21.42,2.17.67,2.69.8l-7.25,9.7a12.35,12.35,0,0,0-1.13-.49Zm4.85,1.24a37.51,37.51,0,0,0,6.58.56l.79,0L42.06,20.08a13.35,13.35,0,0,0-1.83-1.26Zm10.66.35a35.43,35.43,0,0,0,4.56-.75c.08.37.14.73.21,1.1L43.21,21.14c-.21-.22-.43-.44-.67-.65Zm5.12,2.4c.29,1.91.49,3.78.62,5.55L44.85,23.18a13.82,13.82,0,0,0-1.18-1.55Zm.78,10.18L45.72,24.72c-.15-.32-.32-.63-.5-.93l20.15-4.41c0,.93.06,1.84.06,2.71m-6,4.23a19.83,19.83,0,0,0-4.6.61l-.91.27c-.86.25-1.76.52-2.65.76h0a21,21,0,0,1-4.34.79A13.42,13.42,0,0,0,46,25.41l19.4-1.46c0,1.35-.09,2.58-.16,3.69a14.75,14.75,0,0,0-5.83-1.32m-.08,2.48h0a19.42,19.42,0,0,0-4.61.61l-.89.26c-.86.25-1.77.52-2.67.76l.15.56-.15-.56a19.91,19.91,0,0,1-4.55.8h0a24.64,24.64,0,0,1-8.05-1.38,20.14,20.14,0,0,0-3.1-.85,11.14,11.14,0,0,0-1.9-.17,10.58,10.58,0,0,0-1.36.09,17.78,17.78,0,0,0-3.64.94,24.73,24.73,0,0,1-8.07,1.41h0a24.4,24.4,0,0,1-5.81-1.14l-2.3-.67a18.93,18.93,0,0,0-4.54-.59h0a12.71,12.71,0,0,0-5.67,1.37c0-.38-.08-.79-.12-1.24a12.89,12.89,0,0,1,5.89-1.46h0a17.85,17.85,0,0,1,4.22.55l2.3.67.16-.55-.16.55a24.82,24.82,0,0,0,6.12,1.19h0A25.89,25.89,0,0,0,29,28.46a16.45,16.45,0,0,1,3.39-.88l1.22-.08,1.73.15a18.63,18.63,0,0,1,2.9.8,25.73,25.73,0,0,0,8.43,1.45h0a19.48,19.48,0,0,0,4.85-.84h0c.9-.24,1.81-.51,2.68-.77l.91-.27a18.53,18.53,0,0,1,4.29-.56h0a12.79,12.79,0,0,1,5.72,1.39c0,.47-.08.9-.12,1.3a12.76,12.76,0,0,0-5.69-1.37M33.63,26.34v0a11.3,11.3,0,0,0-1.36.09,17.59,17.59,0,0,0-3.64.94,24.68,24.68,0,0,1-7.21,1.39A12.23,12.23,0,0,1,33.57,18.18h0A12.34,12.34,0,0,1,45.74,28.73a24.77,24.77,0,0,1-7.11-1.36,19.64,19.64,0,0,0-3.1-.85v0a11.35,11.35,0,0,0-1.9-.17M1.72,23.93l19.4,1.46a13.51,13.51,0,0,0-.87,3.37,26.47,26.47,0,0,1-5.5-1.12L12.44,27a19,19,0,0,0-4.54-.59h0a14.16,14.16,0,0,0-6,1.38c-.08-1.14-.15-2.42-.18-3.83m57.63,7.35h0a20,20,0,0,0-4.61.6l-1,.29c-.83.25-1.7.5-2.56.73l.15.56-.15-.56a18.81,18.81,0,0,1-4.55.81h0a24.63,24.63,0,0,1-8.05-1.39,19,19,0,0,0-3.1-.85,10.5,10.5,0,0,0-3.26-.08,17.93,17.93,0,0,0-3.64.94,24.72,24.72,0,0,1-8.07,1.4h0a24.09,24.09,0,0,1-5.81-1.14l-.16.56.16-.56-1.7-.49-.59-.17a18.82,18.82,0,0,0-4.53-.59h0a11.31,11.31,0,0,0-5.36,1.34c0-.29-.11-.71-.18-1.25A11.57,11.57,0,0,1,7.8,30h0a17.81,17.81,0,0,1,4.22.55l2.3.67.16-.55-.16.55a24.86,24.86,0,0,0,6.13,1.19h0a25.84,25.84,0,0,0,8.45-1.47,16.66,16.66,0,0,1,3.39-.88L33.44,30h.07l1.74.15a18.05,18.05,0,0,1,2.9.8,25.88,25.88,0,0,0,8.43,1.45h0a19.58,19.58,0,0,0,4.85-.84c.91-.25,1.82-.52,2.69-.77L55,30.5a18.32,18.32,0,0,1,4.29-.56h0a11.59,11.59,0,0,1,5.55,1.42c-.06.51-.12.92-.16,1.21a11.79,11.79,0,0,0-5.38-1.29m7.17-12.16-.11-2c-.13-1.84-.35-3.77-.67-5.74l-.22-1.34c-.12-.71-.27-1.42-.42-2.14L65,7.32l-.59.17A24.7,24.7,0,0,1,61.8,8l-3.89.44c-.77.05-1.59.08-2.46.08A36.58,36.58,0,0,1,48.83,8L47.47,7.7H47.4a26.89,26.89,0,0,1-2.79-.81l-1.81-.68A33.37,33.37,0,0,1,36.7,3l-1.78-1.3c-.33-.26-.66-.53-1-.82l-.4-.34-.38.36s-.33.31-.94.79L30.39,3a34.83,34.83,0,0,1-6.13,3.21l-1.81.68c-.88.3-1.79.58-2.77.83h-.07L18,8.09a32.9,32.9,0,0,1-6,.53c-1,0-2,0-2.95-.11l-3.9-.45c-1.54-.25-2.49-.48-2.51-.49l-.58-.15L2,8c-.12.58-.23,1.15-.34,1.71l-.3,1.74c-.3,1.93-.51,3.82-.64,5.62l-.11,2c0,1-.06,1.92-.07,2.82v1.94a67.47,67.47,0,0,0,.81,9.51A85.37,85.37,0,0,0,7,53.18c4.1,9.93,12,23.54,26.08,32.11l.62.37.61-.37c14.11-8.61,21.92-22.23,26-32.18a84.78,84.78,0,0,0,5.53-19.84,66.38,66.38,0,0,0,.79-9.41V21.93c0-.9,0-1.84-.07-2.81"/><path class="cls-2" d="M50,46.33a.92.92,0,0,1-.66.28h-4.4a.94.94,0,1,1,0-1.87h4.4a.94.94,0,0,1,.93.94.92.92,0,0,1-.27.66m-.87,1.61a.93.93,0,0,1-.68.25H45.76c-.45,0-.76-.33-.88-.88h4.44l.07,0a1.23,1.23,0,0,1-.28.65M48,59.25H46.24l-.48-10.36H48.5ZM49.2,60.7a.76.76,0,0,1-.76.76H45.88v0a.76.76,0,0,1,0-1.51h2.56a.76.76,0,0,1,.76.76m-2.07,6.41a.56.56,0,0,1-.56-.57l-.2-4.38h1.51l-.2,4.39a.56.56,0,0,1-.55.56M43.6,42.54A3.52,3.52,0,0,1,44.08,41a3.4,3.4,0,0,0,.49-2.12,4.17,4.17,0,0,1,1.4.92l0,0-.29.33A3.25,3.25,0,0,0,45.14,44h-.22a2.14,2.14,0,0,0-.37,0,1.63,1.63,0,0,1-1-1.54m3.84-3.74a1.7,1.7,0,0,0,0-.86,4.26,4.26,0,0,1,1.58,2.94A4.78,4.78,0,0,1,47.69,44h-.25a2.16,2.16,0,0,1-.27-2.46c.13-.21.7-1.11.78-1.28a.92.92,0,0,0,.09-.4,2.86,2.86,0,0,1-.27.35c-.17.18-.73.77-.91,1A2.39,2.39,0,0,0,46.79,44H46a2.54,2.54,0,0,1,.19-3.44l.3-.33a3.91,3.91,0,0,0,1-1.46m2.08.59a3.47,3.47,0,0,1,.8-.74A6.4,6.4,0,0,0,51,41.9c.4,1.38-1,2-1.3,2.19a1.54,1.54,0,0,0-.37,0h-.71a5.19,5.19,0,0,0,1.15-3.16,7.29,7.29,0,0,0-.25-1.48m.92,5.08a2.42,2.42,0,0,0,1.2-2.85,5.36,5.36,0,0,1-.51-3.45l.16-.51-.54.06a2.93,2.93,0,0,0-1.65,1.07,7.44,7.44,0,0,0-2.25-2.22l-1.33-.79.86,1.29a2.11,2.11,0,0,1,.39,1.48,2.48,2.48,0,0,1-.35.67A5.7,5.7,0,0,0,44.14,38l-.7-.18.29.66a2.37,2.37,0,0,1-.27,2.23,4.13,4.13,0,0,0-.55,1.88,2.33,2.33,0,0,0,.94,1.92,1.61,1.61,0,0,0,.31,2.64,1.9,1.9,0,0,0,.9,1.6l.49,10.62a1.42,1.42,0,0,0,.13,2.8l.21,4.43a1.25,1.25,0,0,0,2.5,0l.21-4.44a1.43,1.43,0,0,0,.13-2.83l.49-10.61a1.42,1.42,0,0,0,.41-.26,2.06,2.06,0,0,0,.53-1.37,1.79,1.79,0,0,0,.35-.23,1.63,1.63,0,0,0,0-2.34"/><path class="cls-2" d="M21.92,46.64H17.53a.93.93,0,0,1-.94-.93.94.94,0,0,1,.93-.94h4.4a.93.93,0,1,1,0,1.87M21.73,48a.94.94,0,0,1-.69.24H18.36c-.44,0-.76-.34-.88-.88H22a1.24,1.24,0,0,1-.27.65m-1.11,11.3H18.84l-.48-10.37h2.74Zm1.17,1.46a.76.76,0,0,1-.76.76H18.48v0a.76.76,0,0,1,0-1.52H21a.76.76,0,0,1,.76.76m-2.06,6.4a.56.56,0,0,1-.56-.57L19,62.2h1.52l-.2,4.39a.55.55,0,0,1-.55.55M16.2,42.58A3.51,3.51,0,0,1,16.68,41a3.41,3.41,0,0,0,.49-2.13,4.2,4.2,0,0,1,1.4.92l0,0-.29.32a3.25,3.25,0,0,0-.52,3.92h-.22a1.49,1.49,0,0,0-.33.07,1.62,1.62,0,0,1-1-1.56M20,38.84a1.71,1.71,0,0,0,.05-.86,4.26,4.26,0,0,1,1.58,2.94,4.75,4.75,0,0,1-1.37,3.15H20a2.16,2.16,0,0,1-.28-2.46c.13-.22.71-1.11.78-1.28a1,1,0,0,0,.08-.4,2.82,2.82,0,0,1-.26.34c-.17.18-.73.77-.91,1a2.4,2.4,0,0,0-.07,2.81h-.81a2.53,2.53,0,0,1,.19-3.44l.3-.33a3.93,3.93,0,0,0,1-1.47m2.08.59a3.53,3.53,0,0,1,.8-.74,6.37,6.37,0,0,0,.68,3.23c.4,1.38-1,2.05-1.29,2.19a1.84,1.84,0,0,0-.37,0h-.71a5.17,5.17,0,0,0,1.15-3.16,7.4,7.4,0,0,0-.25-1.48M23,44.51a2.42,2.42,0,0,0,1.2-2.85,5.31,5.31,0,0,1-.52-3.45l.17-.52-.54.07a2.9,2.9,0,0,0-1.64,1.07,7.46,7.46,0,0,0-2.25-2.21l-1.32-.78L19,37.12a2.11,2.11,0,0,1,.38,1.49,2.66,2.66,0,0,1-.35.67A5.62,5.62,0,0,0,16.73,38L16,37.81l.29.66a2.37,2.37,0,0,1-.27,2.23,4.18,4.18,0,0,0-.56,1.88,2.28,2.28,0,0,0,.94,1.93l-.07.05a1.63,1.63,0,0,0,.38,2.58,2,2,0,0,0,.9,1.6l.49,10.62a1.42,1.42,0,0,0,.13,2.8l.2,4.44a1.25,1.25,0,0,0,2.51,0l.21-4.44a1.41,1.41,0,0,0,1.3-1.43,1.44,1.44,0,0,0-1.18-1.4l.49-10.6a1.43,1.43,0,0,0,.42-.27,2.06,2.06,0,0,0,.51-1.36,1.61,1.61,0,0,0,.3-2.6"/><path class="cls-2" d="M37.66,48.38a1.44,1.44,0,0,1-1,.43H30.5a1.45,1.45,0,1,1,0-2.89h6.15a1.45,1.45,0,0,1,1,2.47m-2.25,2.44H31.66c-.6,0-1.14-.65-1.35-1.33l.18,0h6.15l.23,0c-.22.67-.83,1.34-1.46,1.34M35,66.48H32.19l-.69-15,.15,0h3.75a1.78,1.78,0,0,0,.23,0Zm1.65,1.89a1.2,1.2,0,0,1-1.2,1.2H31.83a1.2,1.2,0,1,1,0-2.4H35.4a1.21,1.21,0,0,1,1.2,1.2m-2.12,8.18a.92.92,0,0,1-.27.65.9.9,0,0,1-.64.27h0a.92.92,0,0,1-.91-.93l-.29-6.26h2.41ZM28.5,43a5,5,0,0,1,.69-2.25,4.37,4.37,0,0,0,.62-3.15A5.61,5.61,0,0,1,32,39l-.24.27-.4.44a4.4,4.4,0,0,0-.58,5.53h-.3a2.18,2.18,0,0,0-.53.08A2.4,2.4,0,0,1,28.5,43m5.12-5.28a2.78,2.78,0,0,0,0-1.63c1.08.88,2.68,2.53,2.69,4.59a6.81,6.81,0,0,1-2,4.55h-.18a3.6,3.6,0,0,1-.6-1.93,4,4,0,0,1,.75-2.42,3,3,0,0,0-1.11,2.05,4.15,4.15,0,0,0,.51,2.31h-.9a3.24,3.24,0,0,1-.3-3.59c.18-.3,1.15-1.55,1.25-1.79a1.42,1.42,0,0,0,.11-.56,3.9,3.9,0,0,1-.37.48c-.23.26-1,1.08-1.28,1.38a3.45,3.45,0,0,0,0,4.07h-.54a3.68,3.68,0,0,1,.23-5l.41-.45a5.42,5.42,0,0,0,1.34-2m4.45.34a7.4,7.4,0,0,0,.3,4,2.68,2.68,0,0,1-1.28,3.22,2.2,2.2,0,0,0-.44,0h-1.4A7.19,7.19,0,0,0,37,40.66a5,5,0,0,0-.25-1.5A4.72,4.72,0,0,1,38.07,38m-.23,7.54A3.34,3.34,0,0,0,39,41.81a6.81,6.81,0,0,1-.11-4.22l.16-.52-.54.06a3.92,3.92,0,0,0-2.08,1.31A9.72,9.72,0,0,0,33,34.78l-1.16-.68.68,1.16A3.32,3.32,0,0,1,33,37.47a3.94,3.94,0,0,1-.51,1,7,7,0,0,0-3.12-1.74l-.68-.16.28.64a3.43,3.43,0,0,1-.38,3.24A5.63,5.63,0,0,0,27.8,43a3.14,3.14,0,0,0,1.39,2.68,2.13,2.13,0,0,0,.36,3.61,2.85,2.85,0,0,0,1.27,2h0l.7,15.23a1.89,1.89,0,0,0,.17,3.74l.29,6.3a1.61,1.61,0,0,0,1.61,1.61h0a1.61,1.61,0,0,0,1.61-1.6l.29-6.3a1.89,1.89,0,0,0,.18-3.76l.7-15.27h0a2.9,2.9,0,0,0,1.29-2,2.09,2.09,0,0,0,.52-.37,2.15,2.15,0,0,0-.32-3.29"/></svg>